<svg width="302" height="302" viewBox="0 0 302 302" fill="none" xmlns="http://www.w3.org/2000/svg">
<g clip-path="url(#clip0_13_11)">
<path d="M2 2H302V302H2V2Z" stroke="black" stroke-width="2"/>
<path d="M35.375 35H40L50.875 61.5625H51.25L62.125 35H66.75V67H63.125V42.6875H62.8125L52.8125 67H49.3125L39.3125 42.6875H39V67H35.375V35Z" fill="black"/>
<path d="M78.3945 35V67H74.5195V35H78.3945Z" fill="black"/>
<path d="M111.914 45H108.039C107.81 43.8854 107.409 42.9062 106.836 42.0625C106.273 41.2188 105.586 40.5104 104.773 39.9375C103.971 39.3542 103.081 38.9167 102.102 38.625C101.122 38.3333 100.102 38.1875 99.0391 38.1875C97.1016 38.1875 95.3464 38.6771 93.7734 39.6563C92.2109 40.6354 90.9661 42.0781 90.0391 43.9844C89.1224 45.8906 88.6641 48.2292 88.6641 51C88.6641 53.7708 89.1224 56.1094 90.0391 58.0156C90.9661 59.9219 92.2109 61.3646 93.7734 62.3438C95.3464 63.3229 97.1016 63.8125 99.0391 63.8125C100.102 63.8125 101.122 63.6667 102.102 63.375C103.081 63.0833 103.971 62.651 104.773 62.0781C105.586 61.4948 106.273 60.7812 106.836 59.9375C107.409 59.0833 107.81 58.1042 108.039 57H111.914C111.622 58.6354 111.091 60.099 110.32 61.3906C109.549 62.6823 108.591 63.7813 107.445 64.6875C106.299 65.5833 105.013 66.2656 103.586 66.7344C102.169 67.2031 100.654 67.4375 99.0391 67.4375C96.3099 67.4375 93.8828 66.7708 91.7578 65.4375C89.6328 64.1042 87.9609 62.2083 86.7422 59.75C85.5234 57.2917 84.9141 54.375 84.9141 51C84.9141 47.625 85.5234 44.7083 86.7422 42.25C87.9609 39.7917 89.6328 37.8958 91.7578 36.5625C93.8828 35.2292 96.3099 34.5625 99.0391 34.5625C100.654 34.5625 102.169 34.7969 103.586 35.2656C105.013 35.7344 106.299 36.4219 107.445 37.3281C108.591 38.224 109.549 39.3177 110.32 40.6094C111.091 41.8906 111.622 43.3542 111.914 45Z" fill="black"/>
<path d="M118.176 67V35H122.051V49.25H139.113V35H142.988V67H139.113V52.6875H122.051V67H118.176Z" fill="black"/>
<path d="M152.059 67H147.996L159.746 35H163.746L175.496 67H171.434L161.871 40.0625H161.621L152.059 67ZM153.559 54.5H169.934V57.9375H153.559V54.5Z" fill="black"/>
<path d="M180.48 67V35H199.793V38.4375H184.355V49.25H198.793V52.6875H184.355V63.5625H200.043V67H180.48Z" fill="black"/>
<path d="M206.777 67V35H210.652V63.5625H225.527V67H206.777Z" fill="black"/>
<path d="M52.875 93.95C52.6875 92.3667 51.9271 91.1375 50.5938 90.2625C49.2604 89.3875 47.625 88.95 45.6875 88.95C44.2708 88.95 43.0312 89.1792 41.9688 89.6375C40.9167 90.0958 40.0938 90.726 39.5 91.5281C38.9167 92.3302 38.625 93.2417 38.625 94.2625C38.625 95.1167 38.8281 95.851 39.2344 96.4656C39.651 97.0698 40.1823 97.575 40.8281 97.9812C41.474 98.3771 42.151 98.7052 42.8594 98.9656C43.5677 99.2156 44.2188 99.4187 44.8125 99.575L48.0625 100.45C48.8958 100.669 49.8229 100.971 50.8438 101.356C51.875 101.742 52.8594 102.268 53.7969 102.934C54.7448 103.591 55.526 104.434 56.1406 105.466C56.7552 106.497 57.0625 107.762 57.0625 109.262C57.0625 110.992 56.6094 112.554 55.7031 113.95C54.8073 115.346 53.4948 116.455 51.7656 117.278C50.0469 118.101 47.9583 118.512 45.5 118.512C43.2083 118.512 41.224 118.143 39.5469 117.403C37.8802 116.664 36.5677 115.632 35.6094 114.309C34.6615 112.986 34.125 111.45 34 109.7H38C38.1042 110.908 38.5104 111.908 39.2188 112.7C39.9375 113.481 40.8438 114.065 41.9375 114.45C43.0417 114.825 44.2292 115.012 45.5 115.012C46.9792 115.012 48.3073 114.773 49.4844 114.294C50.6615 113.804 51.5938 113.127 52.2812 112.262C52.9688 111.387 53.3125 110.367 53.3125 109.2C53.3125 108.137 53.0156 107.273 52.4219 106.606C51.8281 105.94 51.0469 105.398 50.0781 104.981C49.1094 104.565 48.0625 104.2 46.9375 103.887L43 102.762C40.5 102.044 38.5208 101.018 37.0625 99.6844C35.6042 98.351 34.875 96.6062 34.875 94.45C34.875 92.6583 35.3594 91.0958 36.3281 89.7625C37.3073 88.4187 38.6198 87.3771 40.2656 86.6375C41.9219 85.8875 43.7708 85.5125 45.8125 85.5125C47.875 85.5125 49.7083 85.8823 51.3125 86.6219C52.9167 87.351 54.1875 88.351 55.125 89.6219C56.0729 90.8927 56.5729 92.3354 56.625 93.95H52.875Z" fill="black"/>
<path d="M60.6836 85.95H65.1211L73.9961 100.887H74.3711L83.2461 85.95H87.6836L76.1211 104.762V117.95H72.2461V104.762L60.6836 85.95Z" fill="black"/>
<path d="M118.07 85.95V117.95H114.32L96.8828 92.825H96.5703V117.95H92.6953V85.95H96.4453L113.945 111.137H114.258V85.95H118.07Z" fill="black"/>
<path d="M127.137 117.95H123.074L134.824 85.95H138.824L150.574 117.95H146.512L136.949 91.0125H136.699L127.137 117.95ZM128.637 105.45H145.012V108.887H128.637V105.45Z" fill="black"/>
<path d="M180.934 85.95V117.95H177.184L159.746 92.825H159.434V117.95H155.559V85.95H159.309L176.809 111.137H177.121V85.95H180.934Z" fill="black"/>
<path d="M45.25 168.9H35.375V136.9H45.6875C48.7917 136.9 51.4479 137.541 53.6562 138.822C55.8646 140.093 57.5573 141.921 58.7344 144.306C59.9115 146.681 60.5 149.525 60.5 152.837C60.5 156.171 59.9063 159.041 58.7188 161.447C57.5312 163.843 55.8021 165.686 53.5312 166.978C51.2604 168.259 48.5 168.9 45.25 168.9ZM39.25 165.462H45C47.6458 165.462 49.8385 164.952 51.5781 163.931C53.3177 162.91 54.6146 161.457 55.4688 159.572C56.3229 157.686 56.75 155.442 56.75 152.837C56.75 150.254 56.3281 148.03 55.4844 146.166C54.6406 144.291 53.3802 142.853 51.7031 141.853C50.026 140.843 47.9375 140.337 45.4375 140.337H39.25V165.462Z" fill="black"/>
<path d="M67 168.9V136.9H86.3125V140.337H70.875V151.15H85.3125V154.587H70.875V165.462H86.5625V168.9H67Z" fill="black"/>
<path d="M110.797 144.9C110.609 143.317 109.849 142.087 108.516 141.212C107.182 140.337 105.547 139.9 103.609 139.9C102.193 139.9 100.953 140.129 99.8906 140.587C98.8385 141.046 98.0156 141.676 97.4219 142.478C96.8385 143.28 96.5469 144.192 96.5469 145.212C96.5469 146.067 96.75 146.801 97.1562 147.416C97.5729 148.02 98.1042 148.525 98.75 148.931C99.3958 149.327 100.073 149.655 100.781 149.916C101.49 150.166 102.141 150.369 102.734 150.525L105.984 151.4C106.818 151.619 107.745 151.921 108.766 152.306C109.797 152.692 110.781 153.218 111.719 153.884C112.667 154.541 113.448 155.384 114.062 156.416C114.677 157.447 114.984 158.712 114.984 160.212C114.984 161.942 114.531 163.504 113.625 164.9C112.729 166.296 111.417 167.405 109.688 168.228C107.969 169.051 105.88 169.462 103.422 169.462C101.13 169.462 99.1458 169.093 97.4688 168.353C95.8021 167.614 94.4896 166.582 93.5312 165.259C92.5833 163.936 92.0469 162.4 91.9219 160.65H95.9219C96.026 161.858 96.4323 162.858 97.1406 163.65C97.8594 164.431 98.7656 165.015 99.8594 165.4C100.964 165.775 102.151 165.962 103.422 165.962C104.901 165.962 106.229 165.723 107.406 165.244C108.583 164.754 109.516 164.077 110.203 163.212C110.891 162.337 111.234 161.317 111.234 160.15C111.234 159.087 110.938 158.223 110.344 157.556C109.75 156.89 108.969 156.348 108 155.931C107.031 155.515 105.984 155.15 104.859 154.837L100.922 153.712C98.4219 152.994 96.4427 151.968 94.9844 150.634C93.526 149.301 92.7969 147.556 92.7969 145.4C92.7969 143.608 93.2812 142.046 94.25 140.712C95.2292 139.369 96.5417 138.327 98.1875 137.587C99.8438 136.837 101.693 136.462 103.734 136.462C105.797 136.462 107.63 136.832 109.234 137.572C110.839 138.301 112.109 139.301 113.047 140.572C113.995 141.843 114.495 143.285 114.547 144.9H110.797Z" fill="black"/>
<path d="M125.23 136.9V168.9H121.355V136.9H125.23Z" fill="black"/>
<path d="M154.875 146.9C154.531 145.848 154.078 144.905 153.516 144.072C152.964 143.228 152.302 142.509 151.531 141.916C150.771 141.322 149.906 140.869 148.938 140.556C147.969 140.244 146.906 140.087 145.75 140.087C143.854 140.087 142.13 140.577 140.578 141.556C139.026 142.535 137.792 143.978 136.875 145.884C135.958 147.791 135.5 150.129 135.5 152.9C135.5 155.671 135.964 158.009 136.891 159.916C137.818 161.822 139.073 163.265 140.656 164.244C142.24 165.223 144.021 165.712 146 165.712C147.833 165.712 149.448 165.322 150.844 164.541C152.25 163.749 153.344 162.634 154.125 161.197C154.917 159.749 155.312 158.046 155.312 156.087L156.5 156.337H146.875V152.9H159.062V156.337C159.062 158.973 158.5 161.265 157.375 163.212C156.26 165.16 154.719 166.671 152.75 167.744C150.792 168.806 148.542 169.337 146 169.337C143.167 169.337 140.677 168.671 138.531 167.337C136.396 166.004 134.729 164.108 133.531 161.65C132.344 159.192 131.75 156.275 131.75 152.9C131.75 150.369 132.089 148.093 132.766 146.072C133.453 144.041 134.422 142.311 135.672 140.884C136.922 139.457 138.401 138.364 140.109 137.603C141.818 136.843 143.698 136.462 145.75 136.462C147.438 136.462 149.01 136.718 150.469 137.228C151.938 137.728 153.245 138.442 154.391 139.369C155.547 140.285 156.51 141.384 157.281 142.666C158.052 143.936 158.583 145.348 158.875 146.9H154.875Z" fill="black"/>
<path d="M191.074 136.9V168.9H187.324L169.887 143.775H169.574V168.9H165.699V136.9H169.449L186.949 162.087H187.262V136.9H191.074Z" fill="black"/>
<path d="M219.766 169.337C217.661 169.337 215.849 168.952 214.328 168.181C212.807 167.41 211.635 166.353 210.812 165.009C209.99 163.666 209.578 162.129 209.578 160.4C209.578 159.067 209.859 157.884 210.422 156.853C210.995 155.811 211.781 154.848 212.781 153.962C213.792 153.067 214.953 152.171 216.266 151.275L220.891 147.837C221.797 147.244 222.521 146.608 223.062 145.931C223.615 145.254 223.891 144.369 223.891 143.275C223.891 142.462 223.531 141.676 222.812 140.916C222.104 140.155 221.172 139.775 220.016 139.775C219.203 139.775 218.484 139.983 217.859 140.4C217.245 140.806 216.76 141.327 216.406 141.962C216.062 142.587 215.891 143.233 215.891 143.9C215.891 144.65 216.094 145.41 216.5 146.181C216.917 146.942 217.443 147.723 218.078 148.525C218.724 149.317 219.391 150.129 220.078 150.962L234.766 168.9H230.328L218.203 154.275C217.078 152.921 216.057 151.692 215.141 150.587C214.224 149.483 213.495 148.395 212.953 147.322C212.411 146.249 212.141 145.087 212.141 143.837C212.141 142.4 212.458 141.14 213.094 140.056C213.74 138.962 214.641 138.114 215.797 137.509C216.964 136.895 218.328 136.587 219.891 136.587C221.495 136.587 222.875 136.9 224.031 137.525C225.188 138.14 226.078 138.957 226.703 139.978C227.328 140.989 227.641 142.087 227.641 143.275C227.641 144.806 227.26 146.134 226.5 147.259C225.74 148.384 224.703 149.431 223.391 150.4L217.016 155.15C215.578 156.212 214.604 157.244 214.094 158.244C213.583 159.244 213.328 159.962 213.328 160.4C213.328 161.4 213.589 162.332 214.109 163.197C214.63 164.061 215.365 164.759 216.312 165.291C217.26 165.822 218.37 166.087 219.641 166.087C220.849 166.087 222.026 165.832 223.172 165.322C224.318 164.801 225.354 164.051 226.281 163.072C227.219 162.093 227.958 160.916 228.5 159.541C229.052 158.166 229.328 156.619 229.328 154.9H232.891C232.891 157.025 232.646 158.759 232.156 160.103C231.667 161.447 231.115 162.499 230.5 163.259C229.885 164.02 229.391 164.587 229.016 164.962C228.891 165.119 228.776 165.275 228.672 165.431C228.568 165.587 228.453 165.744 228.328 165.9C227.297 167.056 225.995 167.921 224.422 168.494C222.849 169.056 221.297 169.337 219.766 169.337Z" fill="black"/>
<path d="M45.25 219.85H35.375V187.85H45.6875C48.7917 187.85 51.4479 188.491 53.6562 189.772C55.8646 191.043 57.5573 192.871 58.7344 195.256C59.9115 197.631 60.5 200.475 60.5 203.788C60.5 207.121 59.9063 209.991 58.7188 212.397C57.5312 214.793 55.8021 216.636 53.5312 217.928C51.2604 219.209 48.5 219.85 45.25 219.85ZM39.25 216.413H45C47.6458 216.413 49.8385 215.902 51.5781 214.881C53.3177 213.86 54.6146 212.407 55.4688 210.522C56.3229 208.636 56.75 206.392 56.75 203.788C56.75 201.204 56.3281 198.98 55.4844 197.116C54.6406 195.241 53.3802 193.803 51.7031 192.803C50.026 191.793 47.9375 191.288 45.4375 191.288H39.25V216.413Z" fill="black"/>
<path d="M67 219.85V187.85H86.3125V191.288H70.875V202.1H85.3125V205.538H70.875V216.413H86.5625V219.85H67Z" fill="black"/>
<path d="M94.6094 187.85L104.109 214.788H104.484L113.984 187.85H118.047L106.297 219.85H102.297L90.5469 187.85H94.6094Z" fill="black"/>
<path d="M123.031 219.85V187.85H142.344V191.288H126.906V202.1H141.344V205.538H126.906V216.413H142.594V219.85H123.031Z" fill="black"/>
<path d="M149.328 219.85V187.85H153.203V216.413H168.078V219.85H149.328Z" fill="black"/>
<path d="M199.832 203.85C199.832 207.225 199.223 210.142 198.004 212.6C196.785 215.058 195.113 216.954 192.988 218.288C190.863 219.621 188.436 220.288 185.707 220.288C182.978 220.288 180.551 219.621 178.426 218.288C176.301 216.954 174.629 215.058 173.41 212.6C172.191 210.142 171.582 207.225 171.582 203.85C171.582 200.475 172.191 197.558 173.41 195.1C174.629 192.642 176.301 190.746 178.426 189.413C180.551 188.079 182.978 187.413 185.707 187.413C188.436 187.413 190.863 188.079 192.988 189.413C195.113 190.746 196.785 192.642 198.004 195.1C199.223 197.558 199.832 200.475 199.832 203.85ZM196.082 203.85C196.082 201.079 195.618 198.741 194.691 196.834C193.775 194.928 192.53 193.485 190.957 192.506C189.395 191.527 187.645 191.038 185.707 191.038C183.77 191.038 182.014 191.527 180.441 192.506C178.879 193.485 177.634 194.928 176.707 196.834C175.79 198.741 175.332 201.079 175.332 203.85C175.332 206.621 175.79 208.959 176.707 210.866C177.634 212.772 178.879 214.215 180.441 215.194C182.014 216.173 183.77 216.663 185.707 216.663C187.645 216.663 189.395 216.173 190.957 215.194C192.53 214.215 193.775 212.772 194.691 210.866C195.618 208.959 196.082 206.621 196.082 203.85Z" fill="black"/>
<path d="M206.348 219.85V187.85H217.16C219.671 187.85 221.723 188.303 223.316 189.209C224.921 190.105 226.108 191.319 226.879 192.85C227.65 194.381 228.035 196.09 228.035 197.975C228.035 199.86 227.65 201.574 226.879 203.116C226.118 204.657 224.941 205.886 223.348 206.803C221.754 207.709 219.712 208.163 217.223 208.163H209.473V204.725H217.098C218.816 204.725 220.197 204.428 221.238 203.834C222.28 203.241 223.035 202.439 223.504 201.428C223.983 200.407 224.223 199.256 224.223 197.975C224.223 196.694 223.983 195.548 223.504 194.538C223.035 193.527 222.275 192.735 221.223 192.163C220.171 191.579 218.775 191.288 217.035 191.288H210.223V219.85H206.348Z" fill="black"/>
<path d="M35.375 238.8H40L50.875 265.363H51.25L62.125 238.8H66.75V270.8H63.125V246.488H62.8125L52.8125 270.8H49.3125L39.3125 246.488H39V270.8H35.375V238.8Z" fill="black"/>
<path d="M74.5195 270.8V238.8H93.832V242.238H78.3945V253.05H92.832V256.488H78.3945V267.363H94.082V270.8H74.5195Z" fill="black"/>
<path d="M126.191 238.8V270.8H122.441L105.004 245.675H104.691V270.8H100.816V238.8H104.566L122.066 263.988H122.379V238.8H126.191Z" fill="black"/>
<path d="M132.195 242.238V238.8H156.195V242.238H146.133V270.8H142.258V242.238H132.195Z" fill="black"/>
</g>
<defs>
<clipPath id="clip0_13_11">
<rect width="302" height="302" fill="white"/>
</clipPath>
</defs>
</svg>
