<svg width="302" height="302" viewBox="0 0 302 302" fill="none" xmlns="http://www.w3.org/2000/svg">
<g clip-path="url(#clip0_13_35)">
<path d="M2 0H302V300H2V0Z" stroke="white" stroke-width="2"/>
<path d="M35.375 33H40L50.875 59.5625H51.25L62.125 33H66.75V65H63.125V40.6875H62.8125L52.8125 65H49.3125L39.3125 40.6875H39V65H35.375V33Z" fill="white"/>
<path d="M78.3945 33V65H74.5195V33H78.3945Z" fill="white"/>
<path d="M111.914 43H108.039C107.81 41.8854 107.409 40.9062 106.836 40.0625C106.273 39.2188 105.586 38.5104 104.773 37.9375C103.971 37.3542 103.081 36.9167 102.102 36.625C101.122 36.3333 100.102 36.1875 99.0391 36.1875C97.1016 36.1875 95.3464 36.6771 93.7734 37.6563C92.2109 38.6354 90.9661 40.0781 90.0391 41.9844C89.1224 43.8906 88.6641 46.2292 88.6641 49C88.6641 51.7708 89.1224 54.1094 90.0391 56.0156C90.9661 57.9219 92.2109 59.3646 93.7734 60.3438C95.3464 61.3229 97.1016 61.8125 99.0391 61.8125C100.102 61.8125 101.122 61.6667 102.102 61.375C103.081 61.0833 103.971 60.651 104.773 60.0781C105.586 59.4948 106.273 58.7812 106.836 57.9375C107.409 57.0833 107.81 56.1042 108.039 55H111.914C111.622 56.6354 111.091 58.099 110.32 59.3906C109.549 60.6823 108.591 61.7813 107.445 62.6875C106.299 63.5833 105.013 64.2656 103.586 64.7344C102.169 65.2031 100.654 65.4375 99.0391 65.4375C96.3099 65.4375 93.8828 64.7708 91.7578 63.4375C89.6328 62.1042 87.9609 60.2083 86.7422 57.75C85.5234 55.2917 84.9141 52.375 84.9141 49C84.9141 45.625 85.5234 42.7083 86.7422 40.25C87.9609 37.7917 89.6328 35.8958 91.7578 34.5625C93.8828 33.2292 96.3099 32.5625 99.0391 32.5625C100.654 32.5625 102.169 32.7969 103.586 33.2656C105.013 33.7344 106.299 34.4219 107.445 35.3281C108.591 36.224 109.549 37.3177 110.32 38.6094C111.091 39.8906 111.622 41.3542 111.914 43Z" fill="white"/>
<path d="M118.176 65V33H122.051V47.25H139.113V33H142.988V65H139.113V50.6875H122.051V65H118.176Z" fill="white"/>
<path d="M152.059 65H147.996L159.746 33H163.746L175.496 65H171.434L161.871 38.0625H161.621L152.059 65ZM153.559 52.5H169.934V55.9375H153.559V52.5Z" fill="white"/>
<path d="M180.48 65V33H199.793V36.4375H184.355V47.25H198.793V50.6875H184.355V61.5625H200.043V65H180.48Z" fill="white"/>
<path d="M206.777 65V33H210.652V61.5625H225.527V65H206.777Z" fill="white"/>
<path d="M52.875 91.95C52.6875 90.3667 51.9271 89.1375 50.5938 88.2625C49.2604 87.3875 47.625 86.95 45.6875 86.95C44.2708 86.95 43.0312 87.1792 41.9688 87.6375C40.9167 88.0958 40.0938 88.726 39.5 89.5281C38.9167 90.3302 38.625 91.2417 38.625 92.2625C38.625 93.1167 38.8281 93.851 39.2344 94.4656C39.651 95.0698 40.1823 95.575 40.8281 95.9812C41.474 96.3771 42.151 96.7052 42.8594 96.9656C43.5677 97.2156 44.2188 97.4187 44.8125 97.575L48.0625 98.45C48.8958 98.6687 49.8229 98.9708 50.8438 99.3562C51.875 99.7417 52.8594 100.268 53.7969 100.934C54.7448 101.591 55.526 102.434 56.1406 103.466C56.7552 104.497 57.0625 105.762 57.0625 107.262C57.0625 108.992 56.6094 110.554 55.7031 111.95C54.8073 113.346 53.4948 114.455 51.7656 115.278C50.0469 116.101 47.9583 116.512 45.5 116.512C43.2083 116.512 41.224 116.143 39.5469 115.403C37.8802 114.664 36.5677 113.632 35.6094 112.309C34.6615 110.986 34.125 109.45 34 107.7H38C38.1042 108.908 38.5104 109.908 39.2188 110.7C39.9375 111.481 40.8438 112.065 41.9375 112.45C43.0417 112.825 44.2292 113.012 45.5 113.012C46.9792 113.012 48.3073 112.773 49.4844 112.294C50.6615 111.804 51.5938 111.127 52.2812 110.262C52.9688 109.387 53.3125 108.367 53.3125 107.2C53.3125 106.137 53.0156 105.273 52.4219 104.606C51.8281 103.94 51.0469 103.398 50.0781 102.981C49.1094 102.565 48.0625 102.2 46.9375 101.887L43 100.762C40.5 100.044 38.5208 99.0177 37.0625 97.6844C35.6042 96.351 34.875 94.6062 34.875 92.45C34.875 90.6583 35.3594 89.0958 36.3281 87.7625C37.3073 86.4187 38.6198 85.3771 40.2656 84.6375C41.9219 83.8875 43.7708 83.5125 45.8125 83.5125C47.875 83.5125 49.7083 83.8823 51.3125 84.6219C52.9167 85.351 54.1875 86.351 55.125 87.6219C56.0729 88.8927 56.5729 90.3354 56.625 91.95H52.875Z" fill="white"/>
<path d="M60.6836 83.95H65.1211L73.9961 98.8875H74.3711L83.2461 83.95H87.6836L76.1211 102.762V115.95H72.2461V102.762L60.6836 83.95Z" fill="white"/>
<path d="M118.07 83.95V115.95H114.32L96.8828 90.825H96.5703V115.95H92.6953V83.95H96.4453L113.945 109.137H114.258V83.95H118.07Z" fill="white"/>
<path d="M127.137 115.95H123.074L134.824 83.95H138.824L150.574 115.95H146.512L136.949 89.0125H136.699L127.137 115.95ZM128.637 103.45H145.012V106.887H128.637V103.45Z" fill="white"/>
<path d="M180.934 83.95V115.95H177.184L159.746 90.825H159.434V115.95H155.559V83.95H159.309L176.809 109.137H177.121V83.95H180.934Z" fill="white"/>
<path d="M45.25 166.9H35.375V134.9H45.6875C48.7917 134.9 51.4479 135.541 53.6562 136.822C55.8646 138.093 57.5573 139.921 58.7344 142.306C59.9115 144.681 60.5 147.525 60.5 150.837C60.5 154.171 59.9063 157.041 58.7188 159.447C57.5312 161.843 55.8021 163.686 53.5312 164.978C51.2604 166.259 48.5 166.9 45.25 166.9ZM39.25 163.462H45C47.6458 163.462 49.8385 162.952 51.5781 161.931C53.3177 160.91 54.6146 159.457 55.4688 157.572C56.3229 155.686 56.75 153.442 56.75 150.837C56.75 148.254 56.3281 146.03 55.4844 144.166C54.6406 142.291 53.3802 140.853 51.7031 139.853C50.026 138.843 47.9375 138.337 45.4375 138.337H39.25V163.462Z" fill="white"/>
<path d="M67 166.9V134.9H86.3125V138.337H70.875V149.15H85.3125V152.587H70.875V163.462H86.5625V166.9H67Z" fill="white"/>
<path d="M110.797 142.9C110.609 141.317 109.849 140.087 108.516 139.212C107.182 138.337 105.547 137.9 103.609 137.9C102.193 137.9 100.953 138.129 99.8906 138.587C98.8385 139.046 98.0156 139.676 97.4219 140.478C96.8385 141.28 96.5469 142.192 96.5469 143.212C96.5469 144.067 96.75 144.801 97.1562 145.416C97.5729 146.02 98.1042 146.525 98.75 146.931C99.3958 147.327 100.073 147.655 100.781 147.916C101.49 148.166 102.141 148.369 102.734 148.525L105.984 149.4C106.818 149.619 107.745 149.921 108.766 150.306C109.797 150.692 110.781 151.218 111.719 151.884C112.667 152.541 113.448 153.384 114.062 154.416C114.677 155.447 114.984 156.712 114.984 158.212C114.984 159.942 114.531 161.504 113.625 162.9C112.729 164.296 111.417 165.405 109.688 166.228C107.969 167.051 105.88 167.462 103.422 167.462C101.13 167.462 99.1458 167.093 97.4688 166.353C95.8021 165.614 94.4896 164.582 93.5312 163.259C92.5833 161.936 92.0469 160.4 91.9219 158.65H95.9219C96.026 159.858 96.4323 160.858 97.1406 161.65C97.8594 162.431 98.7656 163.015 99.8594 163.4C100.964 163.775 102.151 163.962 103.422 163.962C104.901 163.962 106.229 163.723 107.406 163.244C108.583 162.754 109.516 162.077 110.203 161.212C110.891 160.337 111.234 159.317 111.234 158.15C111.234 157.087 110.938 156.223 110.344 155.556C109.75 154.89 108.969 154.348 108 153.931C107.031 153.515 105.984 153.15 104.859 152.837L100.922 151.712C98.4219 150.994 96.4427 149.968 94.9844 148.634C93.526 147.301 92.7969 145.556 92.7969 143.4C92.7969 141.608 93.2812 140.046 94.25 138.712C95.2292 137.369 96.5417 136.327 98.1875 135.587C99.8438 134.837 101.693 134.462 103.734 134.462C105.797 134.462 107.63 134.832 109.234 135.572C110.839 136.301 112.109 137.301 113.047 138.572C113.995 139.843 114.495 141.285 114.547 142.9H110.797Z" fill="white"/>
<path d="M125.23 134.9V166.9H121.355V134.9H125.23Z" fill="white"/>
<path d="M154.875 144.9C154.531 143.848 154.078 142.905 153.516 142.072C152.964 141.228 152.302 140.509 151.531 139.916C150.771 139.322 149.906 138.869 148.938 138.556C147.969 138.244 146.906 138.087 145.75 138.087C143.854 138.087 142.13 138.577 140.578 139.556C139.026 140.535 137.792 141.978 136.875 143.884C135.958 145.791 135.5 148.129 135.5 150.9C135.5 153.671 135.964 156.009 136.891 157.916C137.818 159.822 139.073 161.265 140.656 162.244C142.24 163.223 144.021 163.712 146 163.712C147.833 163.712 149.448 163.322 150.844 162.541C152.25 161.749 153.344 160.634 154.125 159.197C154.917 157.749 155.312 156.046 155.312 154.087L156.5 154.337H146.875V150.9H159.062V154.337C159.062 156.973 158.5 159.265 157.375 161.212C156.26 163.16 154.719 164.671 152.75 165.744C150.792 166.806 148.542 167.337 146 167.337C143.167 167.337 140.677 166.671 138.531 165.337C136.396 164.004 134.729 162.108 133.531 159.65C132.344 157.192 131.75 154.275 131.75 150.9C131.75 148.369 132.089 146.093 132.766 144.072C133.453 142.041 134.422 140.311 135.672 138.884C136.922 137.457 138.401 136.364 140.109 135.603C141.818 134.843 143.698 134.462 145.75 134.462C147.438 134.462 149.01 134.718 150.469 135.228C151.938 135.728 153.245 136.442 154.391 137.369C155.547 138.285 156.51 139.384 157.281 140.666C158.052 141.936 158.583 143.348 158.875 144.9H154.875Z" fill="white"/>
<path d="M191.074 134.9V166.9H187.324L169.887 141.775H169.574V166.9H165.699V134.9H169.449L186.949 160.087H187.262V134.9H191.074Z" fill="white"/>
<path d="M219.766 167.337C217.661 167.337 215.849 166.952 214.328 166.181C212.807 165.41 211.635 164.353 210.812 163.009C209.99 161.666 209.578 160.129 209.578 158.4C209.578 157.067 209.859 155.884 210.422 154.853C210.995 153.811 211.781 152.848 212.781 151.962C213.792 151.067 214.953 150.171 216.266 149.275L220.891 145.837C221.797 145.244 222.521 144.608 223.062 143.931C223.615 143.254 223.891 142.369 223.891 141.275C223.891 140.462 223.531 139.676 222.812 138.916C222.104 138.155 221.172 137.775 220.016 137.775C219.203 137.775 218.484 137.983 217.859 138.4C217.245 138.806 216.76 139.327 216.406 139.962C216.062 140.587 215.891 141.233 215.891 141.9C215.891 142.65 216.094 143.41 216.5 144.181C216.917 144.942 217.443 145.723 218.078 146.525C218.724 147.317 219.391 148.129 220.078 148.962L234.766 166.9H230.328L218.203 152.275C217.078 150.921 216.057 149.692 215.141 148.587C214.224 147.483 213.495 146.395 212.953 145.322C212.411 144.249 212.141 143.087 212.141 141.837C212.141 140.4 212.458 139.14 213.094 138.056C213.74 136.962 214.641 136.114 215.797 135.509C216.964 134.895 218.328 134.587 219.891 134.587C221.495 134.587 222.875 134.9 224.031 135.525C225.188 136.14 226.078 136.957 226.703 137.978C227.328 138.989 227.641 140.087 227.641 141.275C227.641 142.806 227.26 144.134 226.5 145.259C225.74 146.384 224.703 147.431 223.391 148.4L217.016 153.15C215.578 154.212 214.604 155.244 214.094 156.244C213.583 157.244 213.328 157.962 213.328 158.4C213.328 159.4 213.589 160.332 214.109 161.197C214.63 162.061 215.365 162.759 216.312 163.291C217.26 163.822 218.37 164.087 219.641 164.087C220.849 164.087 222.026 163.832 223.172 163.322C224.318 162.801 225.354 162.051 226.281 161.072C227.219 160.093 227.958 158.916 228.5 157.541C229.052 156.166 229.328 154.619 229.328 152.9H232.891C232.891 155.025 232.646 156.759 232.156 158.103C231.667 159.447 231.115 160.499 230.5 161.259C229.885 162.02 229.391 162.587 229.016 162.962C228.891 163.119 228.776 163.275 228.672 163.431C228.568 163.587 228.453 163.744 228.328 163.9C227.297 165.056 225.995 165.921 224.422 166.494C222.849 167.056 221.297 167.337 219.766 167.337Z" fill="white"/>
<path d="M45.25 217.85H35.375V185.85H45.6875C48.7917 185.85 51.4479 186.491 53.6562 187.772C55.8646 189.043 57.5573 190.871 58.7344 193.256C59.9115 195.631 60.5 198.475 60.5 201.788C60.5 205.121 59.9063 207.991 58.7188 210.397C57.5312 212.793 55.8021 214.636 53.5312 215.928C51.2604 217.209 48.5 217.85 45.25 217.85ZM39.25 214.413H45C47.6458 214.413 49.8385 213.902 51.5781 212.881C53.3177 211.86 54.6146 210.407 55.4688 208.522C56.3229 206.636 56.75 204.392 56.75 201.788C56.75 199.204 56.3281 196.98 55.4844 195.116C54.6406 193.241 53.3802 191.803 51.7031 190.803C50.026 189.793 47.9375 189.288 45.4375 189.288H39.25V214.413Z" fill="white"/>
<path d="M67 217.85V185.85H86.3125V189.288H70.875V200.1H85.3125V203.538H70.875V214.413H86.5625V217.85H67Z" fill="white"/>
<path d="M94.6094 185.85L104.109 212.788H104.484L113.984 185.85H118.047L106.297 217.85H102.297L90.5469 185.85H94.6094Z" fill="white"/>
<path d="M123.031 217.85V185.85H142.344V189.288H126.906V200.1H141.344V203.538H126.906V214.413H142.594V217.85H123.031Z" fill="white"/>
<path d="M149.328 217.85V185.85H153.203V214.413H168.078V217.85H149.328Z" fill="white"/>
<path d="M199.832 201.85C199.832 205.225 199.223 208.142 198.004 210.6C196.785 213.058 195.113 214.954 192.988 216.288C190.863 217.621 188.436 218.288 185.707 218.288C182.978 218.288 180.551 217.621 178.426 216.288C176.301 214.954 174.629 213.058 173.41 210.6C172.191 208.142 171.582 205.225 171.582 201.85C171.582 198.475 172.191 195.558 173.41 193.1C174.629 190.642 176.301 188.746 178.426 187.413C180.551 186.079 182.978 185.413 185.707 185.413C188.436 185.413 190.863 186.079 192.988 187.413C195.113 188.746 196.785 190.642 198.004 193.1C199.223 195.558 199.832 198.475 199.832 201.85ZM196.082 201.85C196.082 199.079 195.618 196.741 194.691 194.834C193.775 192.928 192.53 191.485 190.957 190.506C189.395 189.527 187.645 189.038 185.707 189.038C183.77 189.038 182.014 189.527 180.441 190.506C178.879 191.485 177.634 192.928 176.707 194.834C175.79 196.741 175.332 199.079 175.332 201.85C175.332 204.621 175.79 206.959 176.707 208.866C177.634 210.772 178.879 212.215 180.441 213.194C182.014 214.173 183.77 214.663 185.707 214.663C187.645 214.663 189.395 214.173 190.957 213.194C192.53 212.215 193.775 210.772 194.691 208.866C195.618 206.959 196.082 204.621 196.082 201.85Z" fill="white"/>
<path d="M206.348 217.85V185.85H217.16C219.671 185.85 221.723 186.303 223.316 187.209C224.921 188.105 226.108 189.319 226.879 190.85C227.65 192.381 228.035 194.09 228.035 195.975C228.035 197.86 227.65 199.574 226.879 201.116C226.118 202.657 224.941 203.886 223.348 204.803C221.754 205.709 219.712 206.163 217.223 206.163H209.473V202.725H217.098C218.816 202.725 220.197 202.428 221.238 201.834C222.28 201.241 223.035 200.439 223.504 199.428C223.983 198.407 224.223 197.256 224.223 195.975C224.223 194.694 223.983 193.548 223.504 192.538C223.035 191.527 222.275 190.735 221.223 190.163C220.171 189.579 218.775 189.288 217.035 189.288H210.223V217.85H206.348Z" fill="white"/>
<path d="M35.375 236.8H40L50.875 263.363H51.25L62.125 236.8H66.75V268.8H63.125V244.488H62.8125L52.8125 268.8H49.3125L39.3125 244.488H39V268.8H35.375V236.8Z" fill="white"/>
<path d="M74.5195 268.8V236.8H93.832V240.238H78.3945V251.05H92.832V254.488H78.3945V265.363H94.082V268.8H74.5195Z" fill="white"/>
<path d="M126.191 236.8V268.8H122.441L105.004 243.675H104.691V268.8H100.816V236.8H104.566L122.066 261.988H122.379V236.8H126.191Z" fill="white"/>
<path d="M132.195 240.238V236.8H156.195V240.238H146.133V268.8H142.258V240.238H132.195Z" fill="white"/>
</g>
<defs>
<clipPath id="clip0_13_35">
<rect width="302" height="302" fill="white"/>
</clipPath>
</defs>
</svg>
